<svg xmlns="http://www.w3.org/2000/svg" viewBox="0 0 440 251" width="440" height="251">
<g fill="#ffffff" fill-rule="evenodd"><path d="M 393 200 L 393 201 L 394 202 L 395 202 L 396 202 L 397 202 L 398 202 L 399 203 L 399 204 L 399 205 L 399 206 L 399 207 L 399 208 L 399 209 L 399 210 L 399 211 L 399 212 L 399 213 L 399 214 L 399 215 L 399 216 L 399 217 L 399 218 L 399 219 L 399 220 L 399 221 L 399 222 L 399 223 L 399 224 L 399 225 L 399 226 L 399 227 L 399 228 L 399 229 L 399 230 L 399 231 L 399 232 L 399 233 L 399 234 L 398 235 L 397 235 L 396 235 L 395 235 L 394 235 L 393 236 L 393 237 L 394 237 L 395 237 L 396 237 L 397 237 L 398 237 L 399 237 L 400 237 L 401 237 L 402 237 L 403 237 L 404 237 L 405 237 L 406 237 L 407 237 L 408 237 L 409 237 L 409 236 L 409 235 L 408 235 L 407 235 L 406 235 L 405 235 L 404 234 L 404 233 L 404 232 L 404 231 L 404 230 L 404 229 L 404 228 L 404 227 L 404 226 L 404 225 L 404 224 L 404 223 L 404 222 L 404 221 L 405 220 L 406 220 L 407 220 L 408 220 L 409 220 L 410 220 L 411 220 L 412 221 L 413 222 L 413 223 L 414 224 L 414 225 L 414 226 L 415 227 L 415 228 L 415 229 L 415 230 L 416 231 L 416 232 L 416 233 L 416 234 L 417 235 L 417 236 L 418 237 L 419 237 L 420 238 L 421 238 L 422 238 L 423 238 L 424 238 L 425 238 L 426 238 L 427 237 L 427 236 L 426 235 L 425 235 L 424 235 L 423 235 L 422 234 L 421 233 L 421 232 L 421 231 L 420 230 L 420 229 L 420 228 L 420 227 L 419 226 L 419 225 L 419 224 L 418 223 L 417 222 L 417 221 L 416 221 L 415 220 L 415 219 L 416 218 L 417 218 L 418 218 L 419 217 L 420 216 L 421 215 L 422 214 L 422 213 L 422 212 L 423 211 L 423 210 L 423 209 L 423 208 L 422 207 L 422 206 L 422 205 L 421 204 L 420 203 L 419 202 L 418 202 L 417 201 L 416 201 L 415 200 L 414 200 L 413 200 L 412 200 L 411 200 L 410 200 L 409 200 L 408 200 L 407 200 L 406 200 L 405 200 L 404 200 L 403 200 L 402 200 L 401 200 L 400 200 L 399 200 L 398 200 L 397 200 L 396 200 L 395 200 L 394 200 Z" />
<path d="M 333 200 L 333 201 L 333 202 L 334 202 L 335 202 L 336 202 L 337 202 L 338 203 L 338 204 L 338 205 L 338 206 L 338 207 L 338 208 L 338 209 L 338 210 L 338 211 L 338 212 L 338 213 L 338 214 L 338 215 L 338 216 L 338 217 L 338 218 L 338 219 L 338 220 L 338 221 L 338 222 L 338 223 L 338 224 L 338 225 L 338 226 L 338 227 L 338 228 L 338 229 L 338 230 L 338 231 L 338 232 L 338 233 L 338 234 L 337 235 L 336 235 L 335 235 L 334 235 L 333 235 L 333 236 L 333 237 L 334 237 L 335 237 L 336 237 L 337 237 L 338 237 L 339 237 L 340 237 L 341 237 L 342 237 L 343 237 L 344 237 L 345 237 L 346 237 L 347 237 L 348 237 L 349 237 L 350 237 L 351 237 L 352 237 L 353 237 L 354 237 L 355 237 L 356 237 L 357 237 L 358 237 L 359 237 L 360 237 L 361 237 L 362 237 L 362 236 L 362 235 L 362 234 L 362 233 L 362 232 L 362 231 L 362 230 L 362 229 L 362 228 L 361 228 L 360 228 L 359 228 L 359 229 L 359 230 L 359 231 L 358 232 L 358 233 L 358 234 L 357 235 L 356 235 L 355 235 L 354 235 L 353 235 L 352 235 L 351 235 L 350 235 L 349 235 L 348 235 L 347 235 L 346 235 L 345 235 L 344 235 L 343 234 L 343 233 L 343 232 L 343 231 L 343 230 L 343 229 L 343 228 L 343 227 L 343 226 L 343 225 L 343 224 L 343 223 L 343 222 L 343 221 L 343 220 L 344 219 L 345 219 L 346 219 L 347 219 L 348 219 L 349 219 L 350 219 L 351 219 L 352 220 L 352 221 L 352 222 L 352 223 L 353 224 L 353 225 L 354 225 L 355 224 L 355 223 L 355 222 L 355 221 L 355 220 L 355 219 L 355 218 L 355 217 L 355 216 L 355 215 L 355 214 L 355 213 L 355 212 L 354 212 L 353 212 L 352 213 L 352 214 L 352 215 L 352 216 L 351 217 L 350 217 L 349 217 L 348 217 L 347 217 L 346 217 L 345 217 L 344 217 L 343 216 L 343 215 L 343 214 L 343 213 L 343 212 L 343 211 L 343 210 L 343 209 L 343 208 L 343 207 L 343 206 L 343 205 L 343 204 L 343 203 L 344 202 L 345 202 L 346 202 L 347 202 L 348 202 L 349 202 L 350 202 L 351 202 L 352 202 L 353 202 L 354 202 L 355 202 L 356 202 L 357 203 L 357 204 L 357 205 L 358 206 L 358 207 L 358 208 L 358 209 L 359 209 L 360 209 L 361 209 L 361 208 L 361 207 L 361 206 L 361 205 L 361 204 L 361 203 L 361 202 L 361 201 L 361 200 L 360 200 L 359 200 L 358 200 L 357 200 L 356 200 L 355 200 L 354 200 L 353 200 L 352 200 L 351 200 L 350 200 L 349 200 L 348 200 L 347 200 L 346 200 L 345 200 L 344 200 L 343 200 L 342 200 L 341 200 L 340 200 L 339 200 L 338 200 L 337 200 L 336 200 L 335 200 L 334 200 Z" />
<path d="M 266 200 L 266 201 L 266 202 L 267 202 L 268 202 L 269 202 L 270 202 L 271 203 L 271 204 L 271 205 L 271 206 L 271 207 L 271 208 L 271 209 L 271 210 L 271 211 L 271 212 L 271 213 L 271 214 L 271 215 L 271 216 L 271 217 L 271 218 L 271 219 L 271 220 L 271 221 L 271 222 L 271 223 L 271 224 L 271 225 L 271 226 L 271 227 L 271 228 L 271 229 L 271 230 L 271 231 L 271 232 L 271 233 L 271 234 L 270 235 L 269 235 L 268 235 L 267 235 L 266 235 L 266 236 L 266 237 L 267 237 L 268 237 L 269 237 L 270 237 L 271 237 L 272 237 L 273 237 L 274 237 L 275 237 L 276 237 L 277 237 L 278 237 L 279 237 L 280 237 L 281 237 L 282 237 L 283 237 L 284 237 L 285 237 L 286 237 L 287 237 L 288 236 L 289 236 L 290 236 L 291 235 L 292 235 L 293 234 L 294 233 L 295 233 L 296 232 L 296 231 L 297 230 L 298 229 L 298 228 L 299 227 L 299 226 L 300 225 L 300 224 L 300 223 L 300 222 L 300 221 L 301 220 L 301 219 L 301 218 L 301 217 L 300 216 L 300 215 L 300 214 L 300 213 L 300 212 L 299 211 L 299 210 L 299 209 L 298 208 L 298 207 L 297 206 L 296 205 L 295 204 L 294 203 L 293 203 L 292 202 L 291 202 L 290 201 L 289 201 L 288 200 L 287 200 L 286 200 L 285 200 L 284 200 L 283 200 L 282 200 L 281 200 L 280 200 L 279 200 L 278 200 L 277 200 L 276 200 L 275 200 L 274 200 L 273 200 L 272 200 L 271 200 L 270 200 L 269 200 L 268 200 L 267 200 Z" />
<path d="M 205 200 L 205 201 L 206 202 L 207 202 L 208 202 L 209 202 L 210 202 L 211 203 L 211 204 L 211 205 L 211 206 L 211 207 L 211 208 L 211 209 L 211 210 L 211 211 L 211 212 L 211 213 L 211 214 L 211 215 L 211 216 L 211 217 L 211 218 L 211 219 L 211 220 L 211 221 L 211 222 L 211 223 L 211 224 L 211 225 L 211 226 L 211 227 L 211 228 L 211 229 L 211 230 L 211 231 L 211 232 L 211 233 L 211 234 L 210 235 L 209 235 L 208 235 L 207 235 L 206 235 L 205 236 L 205 237 L 206 237 L 207 237 L 208 237 L 209 237 L 210 237 L 211 237 L 212 237 L 213 237 L 214 237 L 215 237 L 216 237 L 217 237 L 218 237 L 219 237 L 220 237 L 221 237 L 222 237 L 223 237 L 224 237 L 225 237 L 226 237 L 227 237 L 228 237 L 229 237 L 230 237 L 231 237 L 232 237 L 233 237 L 234 237 L 234 236 L 235 235 L 235 234 L 235 233 L 235 232 L 235 231 L 235 230 L 235 229 L 235 228 L 234 228 L 233 228 L 232 228 L 232 229 L 232 230 L 231 231 L 231 232 L 231 233 L 231 234 L 230 235 L 229 235 L 228 235 L 227 235 L 226 235 L 225 235 L 224 235 L 223 235 L 222 235 L 221 235 L 220 235 L 219 235 L 218 235 L 217 235 L 216 234 L 216 233 L 216 232 L 216 231 L 216 230 L 216 229 L 216 228 L 216 227 L 216 226 L 216 225 L 216 224 L 216 223 L 216 222 L 216 221 L 216 220 L 217 219 L 218 219 L 219 219 L 220 219 L 221 219 L 222 219 L 223 219 L 224 219 L 225 220 L 225 221 L 225 222 L 225 223 L 225 224 L 226 225 L 227 225 L 228 224 L 228 223 L 228 222 L 228 221 L 228 220 L 228 219 L 228 218 L 228 217 L 228 216 L 228 215 L 228 214 L 228 213 L 228 212 L 227 212 L 226 212 L 225 212 L 225 213 L 225 214 L 225 215 L 225 216 L 224 217 L 223 217 L 222 217 L 221 217 L 220 217 L 219 217 L 218 217 L 217 217 L 216 216 L 216 215 L 216 214 L 216 213 L 216 212 L 216 211 L 216 210 L 216 209 L 216 208 L 216 207 L 216 206 L 216 205 L 216 204 L 216 203 L 217 202 L 218 202 L 219 202 L 220 202 L 221 202 L 222 202 L 223 202 L 224 202 L 225 202 L 226 202 L 227 202 L 228 202 L 229 202 L 230 203 L 230 204 L 230 205 L 230 206 L 230 207 L 231 208 L 231 209 L 232 209 L 233 209 L 234 209 L 234 208 L 234 207 L 234 206 L 234 205 L 233 204 L 233 203 L 233 202 L 233 201 L 233 200 L 232 200 L 231 200 L 230 200 L 229 200 L 228 200 L 227 200 L 226 200 L 225 200 L 224 200 L 223 200 L 222 200 L 221 200 L 220 200 L 219 200 L 218 200 L 217 200 L 216 200 L 215 200 L 214 200 L 213 200 L 212 200 L 211 200 L 210 200 L 209 200 L 208 200 L 207 200 L 206 200 Z" />
<path d="M 137 200 L 137 201 L 138 202 L 139 202 L 140 202 L 141 202 L 142 203 L 142 204 L 142 205 L 142 206 L 142 207 L 142 208 L 142 209 L 142 210 L 142 211 L 142 212 L 142 213 L 142 214 L 142 215 L 142 216 L 142 217 L 142 218 L 142 219 L 142 220 L 142 221 L 142 222 L 142 223 L 142 224 L 142 225 L 142 226 L 142 227 L 142 228 L 143 229 L 143 230 L 143 231 L 144 232 L 144 233 L 145 234 L 146 235 L 147 236 L 148 236 L 149 237 L 150 237 L 151 237 L 152 238 L 153 238 L 154 238 L 155 238 L 156 238 L 157 238 L 158 238 L 159 238 L 160 238 L 161 237 L 162 237 L 163 236 L 164 236 L 165 235 L 166 234 L 166 233 L 167 232 L 167 231 L 168 230 L 168 229 L 168 228 L 169 227 L 169 226 L 169 225 L 169 224 L 169 223 L 169 222 L 169 221 L 169 220 L 169 219 L 169 218 L 169 217 L 169 216 L 169 215 L 169 214 L 169 213 L 169 212 L 169 211 L 169 210 L 169 209 L 169 208 L 169 207 L 169 206 L 169 205 L 169 204 L 169 203 L 170 202 L 171 202 L 172 202 L 173 202 L 174 202 L 174 201 L 174 200 L 173 200 L 172 200 L 171 200 L 170 200 L 169 200 L 168 200 L 167 200 L 166 200 L 165 200 L 164 200 L 163 200 L 162 200 L 161 200 L 161 201 L 161 202 L 162 202 L 163 202 L 164 202 L 165 202 L 166 202 L 167 203 L 167 204 L 167 205 L 167 206 L 167 207 L 167 208 L 167 209 L 167 210 L 167 211 L 167 212 L 167 213 L 167 214 L 167 215 L 167 216 L 167 217 L 167 218 L 167 219 L 167 220 L 167 221 L 167 222 L 167 223 L 166 224 L 166 225 L 166 226 L 166 227 L 166 228 L 165 229 L 165 230 L 164 231 L 163 232 L 162 233 L 161 234 L 160 234 L 159 234 L 158 234 L 157 235 L 156 234 L 155 234 L 154 234 L 153 234 L 152 234 L 151 233 L 150 232 L 149 231 L 149 230 L 148 229 L 148 228 L 147 227 L 147 226 L 147 225 L 147 224 L 147 223 L 147 222 L 147 221 L 147 220 L 147 219 L 147 218 L 147 217 L 147 216 L 147 215 L 147 214 L 147 213 L 147 212 L 147 211 L 147 210 L 147 209 L 147 208 L 147 207 L 147 206 L 147 205 L 147 204 L 147 203 L 148 202 L 149 202 L 150 202 L 151 202 L 152 202 L 153 201 L 153 200 L 152 200 L 151 200 L 150 200 L 149 200 L 148 200 L 147 200 L 146 200 L 145 200 L 144 200 L 143 200 L 142 200 L 141 200 L 140 200 L 139 200 L 138 200 Z" />
<path d="M 74 200 L 74 201 L 75 202 L 76 202 L 77 202 L 78 202 L 79 203 L 79 204 L 79 205 L 79 206 L 79 207 L 80 208 L 80 209 L 80 210 L 80 211 L 80 212 L 80 213 L 80 214 L 80 215 L 80 216 L 80 217 L 80 218 L 80 219 L 80 220 L 80 221 L 80 222 L 80 223 L 80 224 L 80 225 L 80 226 L 80 227 L 80 228 L 80 229 L 79 230 L 79 231 L 79 232 L 79 233 L 79 234 L 78 235 L 77 235 L 76 235 L 75 235 L 74 236 L 74 237 L 75 237 L 76 237 L 77 237 L 78 237 L 79 237 L 80 237 L 81 237 L 82 237 L 83 237 L 84 237 L 85 237 L 86 237 L 87 237 L 88 237 L 89 237 L 90 237 L 90 236 L 89 235 L 88 235 L 87 235 L 86 235 L 85 234 L 85 233 L 85 232 L 85 231 L 84 230 L 84 229 L 84 228 L 84 227 L 84 226 L 84 225 L 84 224 L 84 223 L 84 222 L 84 221 L 85 220 L 86 220 L 87 220 L 88 220 L 89 220 L 90 220 L 91 220 L 92 221 L 93 221 L 94 222 L 94 223 L 95 224 L 95 225 L 95 226 L 95 227 L 96 228 L 96 229 L 96 230 L 96 231 L 97 232 L 97 233 L 97 234 L 97 235 L 98 236 L 99 237 L 100 237 L 101 238 L 102 238 L 103 238 L 104 238 L 105 238 L 106 238 L 107 237 L 107 236 L 107 235 L 106 235 L 105 235 L 104 235 L 103 235 L 102 234 L 102 233 L 102 232 L 102 231 L 101 230 L 101 229 L 101 228 L 100 227 L 100 226 L 100 225 L 99 224 L 99 223 L 98 222 L 97 221 L 96 220 L 96 219 L 97 218 L 98 218 L 99 217 L 100 217 L 101 216 L 102 215 L 102 214 L 103 213 L 103 212 L 103 211 L 103 210 L 103 209 L 103 208 L 103 207 L 103 206 L 102 205 L 102 204 L 101 203 L 100 202 L 99 202 L 98 201 L 97 201 L 96 201 L 95 200 L 94 200 L 93 200 L 92 200 L 91 200 L 90 200 L 89 200 L 88 200 L 87 200 L 86 200 L 85 200 L 84 200 L 83 200 L 82 200 L 81 200 L 80 200 L 79 200 L 78 200 L 77 200 L 76 200 L 75 200 Z" />
<path d="M 12 200 L 12 201 L 12 202 L 13 202 L 14 202 L 15 202 L 16 202 L 17 203 L 17 204 L 17 205 L 17 206 L 17 207 L 17 208 L 17 209 L 17 210 L 17 211 L 17 212 L 17 213 L 17 214 L 17 215 L 17 216 L 17 217 L 17 218 L 17 219 L 17 220 L 17 221 L 17 222 L 17 223 L 17 224 L 17 225 L 17 226 L 17 227 L 17 228 L 17 229 L 17 230 L 17 231 L 17 232 L 17 233 L 17 234 L 16 235 L 15 235 L 14 235 L 13 235 L 12 235 L 12 236 L 12 237 L 13 237 L 14 237 L 15 237 L 16 237 L 17 237 L 18 237 L 19 237 L 20 237 L 21 237 L 22 237 L 23 237 L 24 237 L 25 237 L 26 237 L 27 237 L 28 237 L 29 237 L 30 237 L 31 237 L 32 237 L 33 237 L 34 236 L 35 236 L 36 236 L 37 235 L 38 235 L 39 234 L 40 233 L 41 232 L 41 231 L 42 230 L 42 229 L 42 228 L 42 227 L 42 226 L 42 225 L 42 224 L 41 223 L 41 222 L 40 221 L 39 221 L 38 220 L 37 219 L 36 219 L 35 219 L 34 218 L 35 217 L 36 216 L 37 215 L 38 215 L 39 214 L 39 213 L 40 212 L 40 211 L 40 210 L 40 209 L 40 208 L 40 207 L 40 206 L 39 205 L 39 204 L 38 203 L 37 202 L 36 202 L 35 201 L 34 201 L 33 200 L 32 200 L 31 200 L 30 200 L 29 200 L 28 200 L 27 200 L 26 200 L 25 200 L 24 200 L 23 200 L 22 200 L 21 200 L 20 200 L 19 200 L 18 200 L 17 200 L 16 200 L 15 200 L 14 200 L 13 200 Z" />
<path d="M 308 12 L 307 13 L 306 14 L 306 15 L 306 16 L 306 17 L 306 18 L 306 19 L 306 20 L 306 21 L 307 22 L 308 23 L 309 23 L 310 23 L 311 23 L 312 23 L 313 23 L 314 23 L 315 23 L 316 23 L 317 23 L 318 24 L 319 24 L 320 24 L 321 24 L 322 25 L 323 25 L 324 26 L 325 27 L 326 28 L 327 29 L 328 30 L 328 31 L 328 32 L 329 33 L 329 34 L 329 35 L 329 36 L 330 37 L 330 38 L 330 39 L 330 40 L 330 41 L 330 42 L 330 43 L 330 44 L 330 45 L 330 46 L 330 47 L 330 48 L 330 49 L 330 50 L 330 51 L 330 52 L 330 53 L 330 54 L 330 55 L 330 56 L 330 57 L 330 58 L 330 59 L 330 60 L 330 61 L 330 62 L 330 63 L 330 64 L 330 65 L 330 66 L 330 67 L 330 68 L 330 69 L 330 70 L 330 71 L 330 72 L 330 73 L 330 74 L 330 75 L 330 76 L 330 77 L 330 78 L 330 79 L 330 80 L 330 81 L 330 82 L 330 83 L 330 84 L 330 85 L 330 86 L 330 87 L 330 88 L 330 89 L 330 90 L 330 91 L 330 92 L 330 93 L 330 94 L 330 95 L 330 96 L 330 97 L 330 98 L 330 99 L 330 100 L 330 101 L 330 102 L 330 103 L 330 104 L 330 105 L 330 106 L 330 107 L 330 108 L 330 109 L 330 110 L 330 111 L 330 112 L 330 113 L 330 114 L 330 115 L 330 116 L 330 117 L 330 118 L 330 119 L 330 120 L 330 121 L 330 122 L 330 123 L 330 124 L 330 125 L 330 126 L 330 127 L 330 128 L 330 129 L 330 130 L 330 131 L 330 132 L 330 133 L 330 134 L 330 135 L 330 136 L 330 137 L 330 138 L 330 139 L 330 140 L 330 141 L 330 142 L 330 143 L 330 144 L 330 145 L 330 146 L 330 147 L 330 148 L 330 149 L 330 150 L 330 151 L 330 152 L 330 153 L 330 154 L 330 155 L 330 156 L 330 157 L 330 158 L 329 159 L 329 160 L 329 161 L 329 162 L 328 163 L 328 164 L 328 165 L 327 166 L 326 167 L 325 168 L 324 169 L 323 170 L 322 170 L 321 171 L 320 171 L 319 172 L 318 172 L 317 172 L 316 172 L 315 172 L 314 172 L 313 172 L 312 172 L 311 172 L 310 172 L 309 173 L 308 173 L 307 173 L 306 174 L 306 175 L 306 176 L 306 177 L 306 178 L 306 179 L 306 180 L 306 181 L 307 182 L 308 183 L 309 183 L 310 183 L 311 184 L 312 183 L 313 183 L 314 183 L 315 183 L 316 183 L 317 183 L 318 183 L 319 183 L 320 183 L 321 183 L 322 183 L 323 183 L 324 183 L 325 183 L 326 183 L 327 183 L 328 183 L 329 183 L 330 183 L 331 183 L 332 183 L 333 183 L 334 183 L 335 183 L 336 183 L 337 183 L 338 183 L 339 183 L 340 183 L 341 183 L 342 183 L 343 183 L 344 183 L 345 183 L 346 183 L 347 183 L 348 183 L 349 183 L 350 183 L 351 183 L 352 183 L 353 183 L 354 183 L 355 183 L 356 183 L 357 183 L 358 183 L 359 183 L 360 183 L 361 183 L 362 183 L 363 183 L 364 183 L 365 183 L 366 183 L 367 183 L 368 183 L 369 183 L 370 183 L 371 183 L 372 183 L 373 183 L 374 183 L 375 183 L 376 184 L 377 183 L 378 183 L 379 182 L 380 182 L 380 181 L 380 180 L 381 179 L 381 178 L 381 177 L 380 176 L 380 175 L 380 174 L 379 173 L 378 173 L 377 172 L 376 172 L 375 172 L 374 172 L 373 172 L 372 172 L 371 172 L 370 172 L 369 172 L 368 172 L 367 172 L 366 171 L 365 171 L 364 170 L 363 170 L 362 169 L 361 168 L 360 167 L 359 166 L 359 165 L 358 164 L 358 163 L 357 162 L 357 161 L 357 160 L 357 159 L 357 158 L 357 157 L 357 156 L 356 155 L 356 154 L 356 153 L 356 152 L 356 151 L 356 150 L 356 149 L 356 148 L 356 147 L 356 146 L 356 145 L 356 144 L 356 143 L 356 142 L 356 141 L 356 140 L 356 139 L 356 138 L 356 137 L 356 136 L 356 135 L 356 134 L 356 133 L 356 132 L 356 131 L 356 130 L 356 129 L 356 128 L 356 127 L 356 126 L 356 125 L 356 124 L 356 123 L 356 122 L 356 121 L 356 120 L 356 119 L 356 118 L 356 117 L 356 116 L 356 115 L 356 114 L 356 113 L 356 112 L 356 111 L 356 110 L 356 109 L 356 108 L 356 107 L 356 106 L 356 105 L 356 104 L 356 103 L 356 102 L 356 101 L 356 100 L 356 99 L 356 98 L 356 97 L 356 96 L 356 95 L 356 94 L 356 93 L 356 92 L 356 91 L 356 90 L 356 89 L 356 88 L 356 87 L 356 86 L 356 85 L 356 84 L 356 83 L 356 82 L 356 81 L 356 80 L 356 79 L 356 78 L 356 77 L 356 76 L 356 75 L 356 74 L 356 73 L 356 72 L 356 71 L 356 70 L 356 69 L 356 68 L 356 67 L 356 66 L 356 65 L 356 64 L 356 63 L 356 62 L 356 61 L 356 60 L 356 59 L 356 58 L 356 57 L 356 56 L 356 55 L 356 54 L 356 53 L 356 52 L 356 51 L 356 50 L 356 49 L 356 48 L 356 47 L 356 46 L 356 45 L 356 44 L 356 43 L 356 42 L 356 41 L 356 40 L 357 39 L 357 38 L 357 37 L 357 36 L 357 35 L 357 34 L 357 33 L 358 32 L 358 31 L 359 30 L 359 29 L 360 28 L 361 27 L 362 26 L 363 25 L 364 25 L 365 24 L 366 24 L 367 24 L 368 24 L 369 23 L 370 23 L 371 23 L 372 23 L 373 23 L 374 23 L 375 23 L 376 23 L 377 23 L 378 22 L 379 22 L 380 21 L 380 20 L 381 19 L 381 18 L 381 17 L 381 16 L 380 15 L 380 14 L 379 13 L 378 12 L 377 12 L 376 12 L 375 12 L 374 12 L 373 12 L 372 12 L 371 12 L 370 12 L 369 12 L 368 12 L 367 12 L 366 12 L 365 12 L 364 12 L 363 12 L 362 12 L 361 12 L 360 12 L 359 12 L 358 12 L 357 12 L 356 12 L 355 12 L 354 12 L 353 12 L 352 12 L 351 12 L 350 12 L 349 12 L 348 12 L 347 12 L 346 12 L 345 12 L 344 12 L 343 12 L 342 12 L 341 12 L 340 12 L 339 12 L 338 12 L 337 12 L 336 12 L 335 12 L 334 12 L 333 12 L 332 12 L 331 12 L 330 12 L 329 12 L 328 12 L 327 12 L 326 12 L 325 12 L 324 12 L 323 12 L 322 12 L 321 12 L 320 12 L 319 12 L 318 12 L 317 12 L 316 12 L 315 12 L 314 12 L 313 12 L 312 12 L 311 12 L 310 12 L 309 12 Z" />
<path d="M 59 12 L 58 13 L 57 14 L 57 15 L 57 16 L 57 17 L 57 18 L 57 19 L 57 20 L 57 21 L 58 22 L 59 23 L 60 23 L 61 23 L 62 23 L 63 23 L 64 23 L 65 23 L 66 23 L 67 23 L 68 24 L 69 24 L 70 24 L 71 24 L 72 24 L 73 25 L 74 25 L 75 26 L 76 27 L 77 28 L 78 29 L 78 30 L 79 31 L 79 32 L 80 33 L 80 34 L 80 35 L 80 36 L 80 37 L 80 38 L 80 39 L 80 40 L 81 41 L 81 42 L 81 43 L 81 44 L 81 45 L 81 46 L 81 47 L 81 48 L 81 49 L 81 50 L 81 51 L 81 52 L 81 53 L 81 54 L 81 55 L 81 56 L 81 57 L 81 58 L 81 59 L 81 60 L 81 61 L 81 62 L 81 63 L 81 64 L 81 65 L 81 66 L 81 67 L 81 68 L 81 69 L 81 70 L 81 71 L 81 72 L 81 73 L 81 74 L 81 75 L 81 76 L 81 77 L 81 78 L 81 79 L 81 80 L 81 81 L 81 82 L 81 83 L 81 84 L 81 85 L 81 86 L 81 87 L 81 88 L 81 89 L 81 90 L 81 91 L 81 92 L 81 93 L 81 94 L 81 95 L 81 96 L 81 97 L 81 98 L 81 99 L 81 100 L 81 101 L 81 102 L 81 103 L 81 104 L 81 105 L 81 106 L 81 107 L 81 108 L 81 109 L 81 110 L 81 111 L 81 112 L 81 113 L 81 114 L 81 115 L 81 116 L 81 117 L 81 118 L 81 119 L 81 120 L 81 121 L 81 122 L 81 123 L 81 124 L 81 125 L 81 126 L 81 127 L 81 128 L 81 129 L 81 130 L 81 131 L 81 132 L 81 133 L 81 134 L 81 135 L 81 136 L 81 137 L 81 138 L 81 139 L 81 140 L 81 141 L 81 142 L 81 143 L 81 144 L 81 145 L 81 146 L 81 147 L 81 148 L 81 149 L 81 150 L 81 151 L 81 152 L 81 153 L 81 154 L 81 155 L 80 156 L 80 157 L 80 158 L 80 159 L 80 160 L 80 161 L 80 162 L 79 163 L 79 164 L 78 165 L 78 166 L 77 167 L 76 168 L 75 169 L 74 170 L 73 170 L 72 171 L 71 171 L 70 172 L 69 172 L 68 172 L 67 172 L 66 172 L 65 172 L 64 172 L 63 172 L 62 172 L 61 172 L 60 172 L 59 173 L 58 173 L 57 174 L 57 175 L 57 176 L 57 177 L 57 178 L 57 179 L 57 180 L 57 181 L 58 182 L 59 183 L 60 183 L 61 184 L 62 184 L 63 183 L 64 183 L 65 183 L 66 183 L 67 183 L 68 183 L 69 183 L 70 183 L 71 183 L 72 183 L 73 183 L 74 183 L 75 183 L 76 183 L 77 183 L 78 183 L 79 183 L 80 183 L 81 183 L 82 183 L 83 183 L 84 183 L 85 183 L 86 183 L 87 183 L 88 183 L 89 183 L 90 183 L 91 183 L 92 183 L 93 183 L 94 183 L 95 183 L 96 183 L 97 183 L 98 183 L 99 183 L 100 183 L 101 183 L 102 183 L 103 183 L 104 183 L 105 183 L 106 183 L 107 183 L 108 183 L 109 183 L 110 183 L 111 183 L 112 183 L 113 183 L 114 183 L 115 183 L 116 183 L 117 183 L 118 183 L 119 183 L 120 183 L 121 183 L 122 183 L 123 183 L 124 183 L 125 183 L 126 184 L 127 183 L 128 183 L 129 183 L 130 182 L 131 181 L 131 180 L 131 179 L 131 178 L 131 177 L 131 176 L 131 175 L 131 174 L 130 173 L 129 173 L 128 172 L 127 172 L 126 172 L 125 172 L 124 172 L 123 172 L 122 172 L 121 172 L 120 172 L 119 172 L 118 172 L 117 171 L 116 171 L 115 170 L 114 170 L 113 169 L 112 168 L 111 167 L 110 166 L 109 165 L 109 164 L 109 163 L 108 162 L 108 161 L 108 160 L 108 159 L 108 158 L 107 157 L 107 156 L 107 155 L 107 154 L 107 153 L 107 152 L 107 151 L 107 150 L 107 149 L 107 148 L 107 147 L 107 146 L 107 145 L 107 144 L 107 143 L 107 142 L 107 141 L 107 140 L 107 139 L 107 138 L 107 137 L 107 136 L 107 135 L 107 134 L 107 133 L 107 132 L 107 131 L 107 130 L 107 129 L 107 128 L 107 127 L 107 126 L 107 125 L 107 124 L 107 123 L 107 122 L 107 121 L 107 120 L 107 119 L 107 118 L 107 117 L 107 116 L 107 115 L 107 114 L 107 113 L 107 112 L 107 111 L 107 110 L 107 109 L 107 108 L 107 107 L 107 106 L 107 105 L 107 104 L 107 103 L 107 102 L 107 101 L 108 100 L 109 100 L 110 100 L 111 101 L 112 101 L 113 101 L 114 102 L 115 102 L 116 103 L 117 103 L 118 104 L 119 105 L 120 106 L 121 107 L 122 108 L 123 109 L 124 110 L 125 111 L 126 112 L 127 113 L 128 114 L 129 115 L 130 116 L 131 117 L 131 118 L 132 119 L 133 120 L 134 121 L 135 122 L 136 123 L 137 124 L 137 125 L 138 126 L 139 127 L 140 128 L 141 129 L 142 130 L 143 131 L 144 132 L 144 133 L 145 134 L 146 135 L 147 136 L 148 137 L 149 138 L 150 139 L 151 140 L 152 141 L 152 142 L 153 143 L 154 144 L 155 145 L 156 146 L 157 147 L 158 148 L 159 149 L 159 150 L 160 151 L 161 152 L 162 153 L 163 154 L 164 155 L 165 156 L 166 157 L 167 158 L 167 159 L 168 160 L 169 161 L 170 162 L 171 163 L 172 164 L 173 165 L 174 166 L 175 167 L 176 168 L 176 169 L 177 170 L 178 171 L 179 172 L 180 173 L 181 174 L 182 175 L 183 176 L 184 177 L 185 178 L 185 179 L 186 180 L 187 181 L 188 182 L 189 183 L 190 183 L 191 183 L 192 183 L 193 183 L 194 183 L 195 183 L 196 183 L 197 183 L 198 183 L 199 183 L 200 183 L 201 183 L 202 183 L 203 183 L 204 183 L 205 183 L 206 183 L 207 183 L 208 183 L 209 183 L 210 183 L 211 183 L 212 183 L 213 183 L 214 183 L 215 183 L 216 183 L 217 183 L 218 183 L 219 183 L 220 183 L 221 183 L 222 183 L 223 183 L 224 183 L 225 183 L 226 183 L 227 183 L 228 184 L 229 183 L 230 183 L 231 183 L 232 182 L 233 181 L 233 180 L 233 179 L 233 178 L 233 177 L 233 176 L 233 175 L 232 174 L 231 173 L 230 173 L 229 172 L 228 172 L 227 172 L 226 172 L 225 172 L 224 172 L 223 172 L 222 171 L 221 171 L 220 171 L 219 170 L 218 170 L 217 169 L 216 169 L 215 168 L 214 167 L 213 167 L 212 166 L 211 165 L 210 164 L 209 163 L 208 162 L 207 161 L 206 160 L 205 160 L 204 159 L 203 158 L 202 157 L 201 156 L 200 155 L 200 154 L 199 153 L 198 152 L 197 151 L 196 150 L 195 149 L 194 148 L 193 147 L 192 146 L 191 145 L 190 144 L 189 143 L 188 142 L 187 141 L 186 140 L 185 139 L 184 138 L 183 137 L 182 136 L 181 135 L 180 134 L 179 133 L 178 132 L 177 131 L 176 130 L 175 129 L 174 128 L 173 127 L 172 126 L 171 125 L 170 124 L 169 123 L 168 122 L 167 121 L 166 120 L 165 119 L 164 118 L 163 117 L 162 116 L 162 115 L 161 114 L 160 113 L 159 112 L 158 111 L 157 110 L 156 109 L 155 108 L 154 107 L 153 106 L 152 105 L 151 104 L 150 103 L 149 102 L 148 101 L 147 100 L 147 99 L 146 98 L 145 97 L 144 96 L 143 95 L 142 94 L 141 93 L 141 92 L 140 91 L 139 90 L 138 89 L 137 88 L 137 87 L 138 86 L 139 85 L 140 84 L 141 83 L 142 82 L 143 81 L 144 80 L 144 79 L 145 78 L 146 77 L 147 76 L 148 75 L 149 74 L 150 73 L 151 72 L 152 71 L 153 70 L 154 69 L 155 68 L 156 67 L 157 66 L 158 65 L 159 64 L 160 63 L 161 62 L 162 61 L 163 60 L 164 59 L 165 58 L 166 57 L 166 56 L 167 55 L 168 54 L 169 53 L 170 52 L 171 51 L 172 50 L 173 49 L 174 48 L 175 47 L 176 46 L 177 45 L 178 44 L 179 43 L 180 42 L 181 41 L 182 40 L 183 39 L 184 38 L 185 37 L 186 36 L 187 35 L 188 35 L 189 34 L 190 33 L 191 32 L 192 32 L 193 31 L 194 30 L 195 30 L 196 29 L 197 29 L 198 28 L 199 28 L 200 27 L 201 27 L 202 26 L 203 26 L 204 25 L 205 25 L 206 25 L 207 25 L 208 24 L 209 24 L 210 24 L 211 24 L 212 24 L 213 23 L 214 23 L 215 23 L 216 23 L 217 23 L 218 23 L 219 23 L 220 23 L 221 23 L 222 23 L 223 23 L 224 23 L 225 22 L 225 21 L 226 20 L 226 19 L 226 18 L 226 17 L 226 16 L 226 15 L 225 14 L 225 13 L 224 13 L 223 12 L 222 12 L 221 12 L 220 12 L 219 12 L 218 12 L 217 12 L 216 12 L 215 12 L 214 12 L 213 12 L 212 12 L 211 12 L 210 12 L 209 12 L 208 12 L 207 12 L 206 12 L 205 12 L 204 12 L 203 12 L 202 12 L 201 12 L 200 12 L 199 12 L 198 12 L 197 12 L 196 12 L 195 12 L 194 12 L 193 12 L 192 12 L 191 12 L 190 12 L 189 12 L 188 12 L 187 12 L 186 12 L 185 12 L 184 12 L 183 12 L 182 12 L 181 12 L 180 12 L 179 12 L 178 12 L 177 12 L 176 12 L 175 12 L 174 12 L 173 12 L 172 12 L 171 12 L 170 12 L 169 12 L 168 12 L 167 12 L 166 12 L 165 12 L 164 13 L 163 14 L 163 15 L 163 16 L 162 17 L 162 18 L 163 19 L 163 20 L 163 21 L 164 22 L 165 23 L 166 23 L 167 23 L 168 23 L 169 24 L 170 24 L 171 24 L 172 25 L 173 26 L 173 27 L 173 28 L 173 29 L 173 30 L 172 31 L 172 32 L 171 33 L 171 34 L 170 35 L 169 36 L 168 37 L 167 38 L 166 39 L 166 40 L 165 41 L 164 42 L 163 43 L 162 44 L 161 45 L 160 46 L 160 47 L 159 48 L 158 49 L 157 50 L 156 51 L 155 52 L 154 53 L 153 54 L 153 55 L 152 56 L 151 57 L 150 58 L 149 59 L 148 60 L 147 61 L 146 62 L 145 63 L 144 64 L 143 65 L 142 66 L 141 67 L 140 68 L 139 69 L 139 70 L 138 71 L 137 72 L 136 72 L 135 73 L 134 74 L 133 75 L 132 76 L 131 77 L 130 78 L 129 79 L 128 80 L 127 81 L 126 82 L 125 82 L 124 83 L 123 84 L 122 85 L 121 86 L 120 86 L 119 87 L 118 88 L 117 88 L 116 89 L 115 90 L 114 90 L 113 91 L 112 91 L 111 92 L 110 92 L 109 93 L 108 93 L 107 92 L 107 91 L 107 90 L 107 89 L 107 88 L 107 87 L 107 86 L 107 85 L 107 84 L 107 83 L 107 82 L 107 81 L 107 80 L 107 79 L 107 78 L 107 77 L 107 76 L 107 75 L 107 74 L 107 73 L 107 72 L 107 71 L 107 70 L 107 69 L 107 68 L 107 67 L 107 66 L 107 65 L 107 64 L 107 63 L 107 62 L 107 61 L 107 60 L 107 59 L 107 58 L 107 57 L 107 56 L 107 55 L 107 54 L 107 53 L 107 52 L 107 51 L 107 50 L 107 49 L 107 48 L 107 47 L 107 46 L 107 45 L 107 44 L 107 43 L 107 42 L 107 41 L 107 40 L 107 39 L 108 38 L 108 37 L 108 36 L 108 35 L 108 34 L 108 33 L 109 32 L 109 31 L 109 30 L 110 29 L 111 28 L 112 27 L 113 26 L 114 25 L 115 25 L 116 24 L 117 24 L 118 24 L 119 24 L 120 23 L 121 23 L 122 23 L 123 23 L 124 23 L 125 23 L 126 23 L 127 23 L 128 23 L 129 22 L 130 22 L 131 21 L 131 20 L 131 19 L 131 18 L 131 17 L 131 16 L 131 15 L 131 14 L 130 13 L 129 12 L 128 12 L 127 12 L 126 12 L 125 12 L 124 12 L 123 12 L 122 12 L 121 12 L 120 12 L 119 12 L 118 12 L 117 12 L 116 12 L 115 12 L 114 12 L 113 12 L 112 12 L 111 12 L 110 12 L 109 12 L 108 12 L 107 12 L 106 12 L 105 12 L 104 12 L 103 12 L 102 12 L 101 12 L 100 12 L 99 12 L 98 12 L 97 12 L 96 12 L 95 12 L 94 12 L 93 12 L 92 12 L 91 12 L 90 12 L 89 12 L 88 12 L 87 12 L 86 12 L 85 12 L 84 12 L 83 12 L 82 12 L 81 12 L 80 12 L 79 12 L 78 12 L 77 12 L 76 12 L 75 12 L 74 12 L 73 12 L 72 12 L 71 12 L 70 12 L 69 12 L 68 12 L 67 12 L 66 12 L 65 12 L 64 12 L 63 12 L 62 12 L 61 12 L 60 12 Z" /></g>
</svg>